<svg id="Capa_1" data-name="Capa 1" xmlns="http://www.w3.org/2000/svg" viewBox="0 0 869.31 680.85"><defs><style>.cls-1,.cls-2,.cls-7,.cls-8{isolation:isolate}.cls-2,.cls-7,.cls-8{font-size:35.7px}.cls-2{fill:#a5adb4;font-family:TitilliumWeb-Bold,Titillium Web}.cls-2,.cls-8{font-weight:700}.cls-5{letter-spacing:0}.cls-14,.cls-7,.cls-8{fill:#fff}.cls-7{font-family:TitilliumWeb-Regular,Titillium Web}.cls-8{font-family:TitilliumWeb-BoldItalic,Titillium Web;font-style:italic}.cls-9{letter-spacing:-.01em}.cls-10{letter-spacing:0}.cls-15{fill:#6c8090}.cls-16{fill:none;stroke:#a5adb4;stroke-miterlimit:10;stroke-width:2px}.cls-17{fill:#dadfe3}</style></defs><g id="The_Geoportal_is_a_tool_that_let_you_interact_with_the_information_in_two_ways:" data-name="The Geoportal is a tool that let you interact with the information in two ways:" class="cls-1"><text class="cls-2" transform="translate(98.97 48.35)">The Geoportal is a tool that let <tspan x="473" y="0" letter-spacing="-.01em">y</tspan><tspan x="490.57" y="0">ou interact</tspan></text><text class="cls-2" transform="translate(167.69 87.02)">with the in<tspan x="165.11" y="0" letter-spacing="0">f</tspan><tspan class="cls-5" x="177.71" y="0">ormation in two w</tspan><tspan x="458.73" y="0" letter-spacing="-.01em">ay</tspan><tspan x="494.32" y="0">s:</tspan></text></g><g id="In_the_left_panel_you_can_turn_on_and_off_layers_and_display_them_in_the_panel" data-name="In the left panel you can turn on and off layers and display them in the panel" class="cls-1"><text class="cls-7" transform="translate(20.28 533.26)">In the</text><text class="cls-8" transform="translate(113.67 533.26)">left</text><text class="cls-7" transform="translate(162.82 533.26)"><tspan>panel </tspan><tspan class="cls-9" x="97.85" y="0">y</tspan><tspan class="cls-5" x="114.77" y="0">ou can</tspan></text><text class="cls-7" transform="translate(20.28 571.93)">turn on and off l<tspan class="cls-10" x="239.11" y="0">a</tspan><tspan class="cls-9" x="256.81" y="0">y</tspan><tspan x="273.74" y="0">ers</tspan></text><text class="cls-7" transform="translate(20.28 610.61)">and displ<tspan class="cls-10" x="134.15" y="0">a</tspan><tspan x="151.86" y="0">y them in the</tspan></text><text class="cls-7" transform="translate(20.28 649.28)">panel</text></g><g id="In_the_right_panel_in_the_draw_section_you_can_draw_polygons_lines_and_points_in_the_map_" data-name="In the right panel in the draw section you can draw polygons lines and points in the map" class="cls-1"><text class="cls-7" transform="translate(506.54 533.26)">In the</text><text class="cls-8" transform="translate(599.93 533.26)">right</text><text class="cls-7" transform="translate(667.86 533.26)"><tspan>panel in the</tspan></text><text class="cls-7" transform="translate(534.49 571.93)">draw section <tspan class="cls-9" x="200.59" y="0">y</tspan><tspan class="cls-5" x="217.51" y="0">ou can</tspan></text><text class="cls-7" transform="translate(544.67 610.61)">draw pol<tspan x="130.09" y="0" letter-spacing="-.01em">y</tspan><tspan x="146.97" y="0" letter-spacing="0">gons, lines</tspan></text><text class="cls-7" transform="translate(526 649.28)">and poi<tspan x="109.27" y="0" letter-spacing="0">n</tspan><tspan x="128.34" y="0">ts in the map</tspan></text></g><rect id="Rectángulo_1152" data-name="Rectángulo 1152" class="cls-14" x="177.95" y="180.53" width="98.17" height="282.62" rx="8.92"/><rect id="Rectángulo_1155" data-name="Rectángulo 1155" class="cls-14" x="579.57" y="180.53" width="98.17" height="282.62" rx="8.92"/><rect id="Rectángulo_1154" data-name="Rectángulo 1154" class="cls-15" x="285.05" y="180.53" width="285.59" height="282.62" rx="8.92"/><rect id="Rectángulo_1153" data-name="Rectángulo 1153" class="cls-15" x="177.95" y="144.83" width="499.79" height="26.77" rx="8.92"/><path id="Trazado_374" data-name="Trazado 374" class="cls-16" d="M226.9 321.31H76.8v141.84"/><path id="Trazado_375" data-name="Trazado 375" class="cls-16" d="M628.52 321.31h144.42v141.84"/><path id="Trazado_238" data-name="Trazado 238" class="cls-17" d="M97.39 446.92l-21.94 21.94-21.94-21.94 5.1-5.1 16.84 16.84 16.84-16.84z"/><path id="Trazado_376" data-name="Trazado 376" class="cls-17" d="M793.52 446.92l-21.94 21.94-21.93-21.94 5.1-5.1 16.84 16.84 16.83-16.84z"/></svg>