<svg data-name="Capa 1" xmlns="http://www.w3.org/2000/svg" viewBox="0 0 283.46 283.46"><path data-name="Rectángulo 1649" fill="#273038" stroke="#273038" stroke-miterlimit="10" stroke-width=".5" d="M10.55 9.91h261.56v261.56H10.55z"/><path data-name="Trazado 368" d="M206 174.72a22.23 22.23 0 00-5.39.67l-14.25-23.66a22.35 22.35 0 00.86-28.94L202 98.2a22.52 22.52 0 10-17.1-30h-79.21a22.51 22.51 0 10-29.06 28.9v79.12a22.51 22.51 0 1029 29h79.27a22.52 22.52 0 1021.1-30.5zM92.58 176.2V97.08a22.64 22.64 0 0013.06-12.93H185a22.94 22.94 0 003.35 5.85l-14.74 24.58a22.53 22.53 0 101.38 44l14.25 23.67a22.58 22.58 0 00-4.27 7H105.7a22.66 22.66 0 00-13.11-13.06zm77-30.19a9.26 9.26 0 119.25-9.26 9.28 9.28 0 01-9.25 9.26zM206 66.84a6.65 6.65 0 110-.07zm-121.36 0a6.64 6.64 0 11-.05-.07h.05zm0 139.71a9.22 9.22 0 100-.06zm121.36 0a9.22 9.22 0 100-.06z" fill="#6c8090"/></svg>