<svg id="Capa_1" data-name="Capa 1" xmlns="http://www.w3.org/2000/svg" viewBox="0 0 283.46 283.46"><defs><style>.cls-2{fill:#6c8090}</style></defs><path id="Rectángulo_1648" data-name="Rectángulo 1648" fill="#273038" stroke="#273038" stroke-miterlimit="10" stroke-width=".5" d="M9.32 9.91h261.22v261.22H9.32z"/><g id="Grupo_398" data-name="Grupo 398"><path id="Trazado_365" data-name="Trazado 365" class="cls-2" d="M204.9 101.66A21.9 21.9 0 10183 79.77a21.91 21.91 0 0021.9 21.89zm0-30.88a9 9 0 11-9 9 9 9 0 019-9z"/><path id="Trazado_372" data-name="Trazado 372" class="cls-2" d="M83.05 221.42a21.9 21.9 0 10-21.9-21.89 21.92 21.92 0 0021.9 21.89zm0-30.88a9 9 0 11-9 9 9 9 0 019-9z"/><path id="Trazado_367" data-name="Trazado 367" class="cls-2" d="M204.85 178.92a22.35 22.35 0 00-9.25 2L104.14 89.6a22.29 22.29 0 002-9.23 22.57 22.57 0 10-13.24 20.48l91.45 91.34a22.49 22.49 0 1020.5-13.27zM74.44 80.37a9.24 9.24 0 119.24 9.24 9.24 9.24 0 01-9.24-9.24zm130.41 130.29a9.25 9.25 0 119.24-9.24 9.24 9.24 0 01-9.24 9.24z"/></g></svg>