<svg id="Capa_1" data-name="Capa 1" xmlns="http://www.w3.org/2000/svg" viewBox="0 0 283.46 283.46"><defs><style>.cls-2{fill:#6c8090}</style></defs><path id="Rectángulo_1647" data-name="Rectángulo 1647" fill="#273038" stroke="#273038" stroke-miterlimit="10" stroke-width=".5" d="M9.67 9.91h261.22v261.22H9.67z"/><g id="Grupo_397" data-name="Grupo 397"><path id="Trazado_361" data-name="Trazado 361" class="cls-2" d="M84 53.45a22.5 22.5 0 1022.5 22.49A22.51 22.51 0 0084 53.45zm0 31.73a9.24 9.24 0 119.25-9.24A9.25 9.25 0 0184 85.18z"/><path id="Trazado_362" data-name="Trazado 362" class="cls-2" d="M205.23 98.44a22.5 22.5 0 10-22.5-22.5 22.51 22.51 0 0022.5 22.5zm0-31.73A9.24 9.24 0 11196 76a9.25 9.25 0 019.25-9.24z"/><path id="Trazado_363" data-name="Trazado 363" class="cls-2" d="M84 174.5a22.5 22.5 0 1022.5 22.5A22.52 22.52 0 0084 174.5zm0 31.73a9.24 9.24 0 119.28-9.23 9.24 9.24 0 01-9.28 9.23z"/><path id="Trazado_364" data-name="Trazado 364" class="cls-2" d="M205.23 174.5a22.5 22.5 0 1022.49 22.5 22.53 22.53 0 00-22.49-22.5zm0 31.73a9.24 9.24 0 119.24-9.24 9.25 9.25 0 01-9.24 9.24z"/></g></svg>