<svg data-name="Capa 1" xmlns="http://www.w3.org/2000/svg" viewBox="0 0 238.62 237.57"><circle cx="120.31" cy="118.32" r="106.68" fill="#6c8090" stroke="#6c8090" stroke-miterlimit="10" stroke-width="7"/><g data-name="Grupo 518"><path data-name="Trazado 150" d="M150.37 70.13l-29.16 29.43-29.43-29.15a9.21 9.21 0 00-13 .06L72.28 77a9.2 9.2 0 00.06 13l29.44 29.16-29.15 29.46a9.2 9.2 0 00.05 13l6.53 6.47a9.21 9.21 0 0013-.06l29.15-29.43 29.43 29.15a9.2 9.2 0 0013-.05l6.48-6.54a9.2 9.2 0 00-.05-13L140.84 119 170 89.57a9.2 9.2 0 00-.07-13l-6.53-6.48a9.21 9.21 0 00-13 .06z" fill="#fff"/></g></svg>