<svg id="Capa_1" data-name="Capa 1" xmlns="http://www.w3.org/2000/svg" viewBox="0 0 283.46 283.46"><defs><style>.cls-2{fill:#6c8090}</style></defs><path id="Rectángulo_1653" data-name="Rectángulo 1653" fill="#273038" d="M8.2 11.59h260.28v260.28H8.2z"/><g id="Grupo_520" data-name="Grupo 520"><g id="Grupo_519" data-name="Grupo 519"><path id="Trazado_525" data-name="Trazado 525" class="cls-2" d="M227.21 94.42h-64.62a7.52 7.52 0 01-7.54-7.52 7.54 7.54 0 017.54-7.55h64.62a7.55 7.55 0 017.55 7.55 7.54 7.54 0 01-7.53 7.54z"/><path id="Trazado_526" data-name="Trazado 526" class="cls-2" d="M194.91 126.74a7.55 7.55 0 01-7.55-7.53V54.57a7.55 7.55 0 017.55-7.57 7.55 7.55 0 017.54 7.54v64.62a7.54 7.54 0 01-7.53 7.55z"/></g><g id="Capa_4" data-name="Capa 4"><path id="Trazado_527" data-name="Trazado 527" class="cls-2" d="M209.16 184.78a25.63 25.63 0 00-24.46 18.06h-89a25.71 25.71 0 00-16.92-16.92V97.1a25.6 25.6 0 10-15.09 0v88.82a25.6 25.6 0 1032 32h89a25.6 25.6 0 1024.5-33.15zM71.25 62.14a10.52 10.52 0 11-10.52 10.52 10.57 10.57 0 0110.52-10.52zm0 158.77a10.52 10.52 0 1110.52-10.52 10.56 10.56 0 01-10.52 10.52zm137.91 0a10.52 10.52 0 1110.52-10.52 10.56 10.56 0 01-10.52 10.52z"/></g></g></svg>