<svg id="Capa_1" data-name="Capa 1" xmlns="http://www.w3.org/2000/svg" viewBox="0 0 283.46 283.46"><defs><style>.cls-2{fill:#6c8090}</style></defs><path id="Rectángulo_1656" data-name="Rectángulo 1656" fill="#273038" d="M11.55 11.55h260.37v260.37H11.55z"/><g id="Grupo_522" data-name="Grupo 522"><g id="Grupo_521" data-name="Grupo 521"><path id="Trazado_528" data-name="Trazado 528" class="cls-2" d="M230.64 94.42H166a7.55 7.55 0 01-7.55-7.54 7.55 7.55 0 017.55-7.56h64.65a7.54 7.54 0 017.54 7.55 7.54 7.54 0 01-7.53 7.55z"/></g><g id="Capa_4" data-name="Capa 4"><path id="Trazado_529" data-name="Trazado 529" class="cls-2" d="M212.58 184.79a25.65 25.65 0 00-24.47 18.07h-89a25.7 25.7 0 00-16.93-16.92V97.09a25.61 25.61 0 10-15.09 0v88.85a25.61 25.61 0 1032 32h89a25.6 25.6 0 1024.51-33.16zM74.62 62.11A10.53 10.53 0 1164.1 72.63a10.56 10.56 0 0110.52-10.52zm0 158.83a10.53 10.53 0 1110.51-10.52 10.57 10.57 0 01-10.51 10.52zm138 0a10.53 10.53 0 1110.51-10.52 10.57 10.57 0 01-10.51 10.52z"/></g></g></svg>