<svg data-name="Capa 1" xmlns="http://www.w3.org/2000/svg" viewBox="0 0 283.46 283.46"><path data-name="Rectángulo 1676" fill="#273038" d="M12.09 9.51h261.56v261.56H12.09z"/><path data-name="Trazado 523" d="M223.65 96.89l-31.08-31.08A17.82 17.82 0 00180 60.6H80.67a17.79 17.79 0 00-17.8 17.77v130.42a17.78 17.78 0 0017.78 17.78h130.4a17.78 17.78 0 0017.79-17.78v-99.32a17.76 17.76 0 00-5.21-12.58zm-77.77 106a23.66 23.66 0 01-23.71-23.62 23.7 23.7 0 0123.71-23.71 23.66 23.66 0 0123.66 23.67 23.66 23.66 0 01-23.67 23.66zm35.56-112.8v37.21a4.45 4.45 0 01-4.44 4.45H91a4.44 4.44 0 01-4.44-4.44V88.77A4.44 4.44 0 0191 84.32h84.67a4.44 4.44 0 013.14 1.3l1.29 1.29a4.4 4.4 0 011.3 3.14z" fill="#6c8090"/></svg>