<svg data-name="Capa 1" xmlns="http://www.w3.org/2000/svg" viewBox="0 0 283.46 283.46"><g data-name="Grupo 580"><g data-name="Grupo 579"><rect data-name="Rectángulo 1675" x="7.51" y="10.07" width="266.45" height="266.45" rx="19.36" fill="#4b565f"/></g><path data-name="Trazado 371" d="M222.82 141.92a85.14 85.14 0 01-85.12 85.13 85.14 85.14 0 01-85.13-85.12 85.13 85.13 0 01170.26 0zM140 84.94a44.44 44.44 0 00-40 21.89 4.12 4.12 0 00.93 5.58l11.9 9a4.12 4.12 0 005.72-.73c6.13-7.78 10.33-12.27 19.67-12.27 7 0 15.69 4.52 15.69 11.32 0 5.16-4.25 7.78-11.17 11.66-8.07 4.52-18.76 10.16-18.76 24.25v1.38a4.12 4.12 0 004.12 4.12h19.22a4.12 4.12 0 004.11-4.12v-.53c0-9.77 28.56-10.18 28.56-36.61 0-19.88-20.65-35-40-35zm-2.28 85.13a15.79 15.79 0 1015.79 15.79 15.8 15.8 0 00-15.79-15.79z" fill="#b7c2cb"/></g></svg>