<svg data-name="Capa 1" xmlns="http://www.w3.org/2000/svg" viewBox="0 0 283.46 261.84"><path data-name="Trazado 281" d="M261.29 130.62A122.82 122.82 0 01141 255.83 122.81 122.81 0 0120.74 130.62 122.82 122.82 0 01141 5.41a122.84 122.84 0 01120.29 125.21zm-117-83.81A62.34 62.34 0 0087.71 79 6.25 6.25 0 0089 87.21l16.83 13.29a5.67 5.67 0 008-.88 1.56 1.56 0 00.16-.2c8.67-11.44 14.6-18 27.79-18 9.93 0 22.16 6.64 22.16 16.64 0 7.56-6 11.45-15.77 17.14-11.41 6.66-26.51 14.94-26.51 35.67v2a6 6 0 005.82 6.06h27.16a5.93 5.93 0 005.81-6.06v-.68c0-14.36 40.35-15 40.35-53.85 0-29.29-29.22-51.51-56.55-51.51zM141 172a23.24 23.24 0 1022.31 23.22A22.8 22.8 0 00141 172z" fill="#6c8090"/></svg>