<svg data-name="Capa 1" xmlns="http://www.w3.org/2000/svg" viewBox="0 0 283.46 283.46"><g data-name="Grupo 548"><path data-name="Trazado 562" d="M27.57 8.56h226.32a19.23 19.23 0 0119.24 19.24v226.32a19.24 19.24 0 01-19.24 19.24H27.57a19.25 19.25 0 01-19.24-19.24V27.8A19.24 19.24 0 0127.57 8.56z" fill="#4b565f"/><g data-name="Grupo 518"><path data-name="Trazado 150" d="M200.23 131.91h-42.38V89.52a9.41 9.41 0 00-9.41-9.41H139a9.41 9.41 0 00-9.41 9.41v42.39H87.22a9.41 9.41 0 00-9.42 9.41v9.42a9.42 9.42 0 009.42 9.42h42.38v42.38A9.41 9.41 0 00139 212h9.44a9.41 9.41 0 009.41-9.41v-42.43h42.38a9.42 9.42 0 009.42-9.42v-9.42a9.41 9.41 0 00-9.41-9.41z" fill="#b7c2cb"/></g></g></svg>