<svg data-name="Capa 1" xmlns="http://www.w3.org/2000/svg" viewBox="0 0 283.46 283.46"><g data-name="Grupo 550"><rect data-name="Rectángulo 1674" x="11.35" y="10.41" width="263.52" height="263.52" rx="19.15" fill="#4b565f"/><path data-name="Trazado 563" d="M170.26 113.34c-4.87-30-16.36-51.07-29.73-51.07s-24.87 21.07-29.7 51.07zm-62 32.25a214.58 214.58 0 001.11 21.51h62.26a208.8 208.8 0 001.11-21.51 208.61 208.61 0 00-1.11-21.5h-62.25a214.38 214.38 0 00-1.11 21.5zm109.09-32.25a83.47 83.47 0 00-53.08-47.57 113.42 113.42 0 0116.8 47.57zM116.74 65.77a83.47 83.47 0 00-53 47.57H100a113.1 113.1 0 0116.74-47.57zM221 124.09h-38.57c.7 7 1.11 14.28 1.11 21.5s-.41 14.45-1.11 21.51h38.5a82.66 82.66 0 002.89-21.51 84.34 84.34 0 00-2.85-21.5zm-123.48 21.5c0-7.22.41-14.44 1.11-21.5H60.1a81.49 81.49 0 000 43h38.5c-.67-7.09-1.08-14.27-1.08-21.5zm13.31 32.26c4.87 30 16.36 51.06 29.73 51.06s24.86-21.06 29.73-51.06zm53.52 47.57a83.59 83.59 0 0053.08-47.57h-36.32a113.27 113.27 0 01-16.79 47.57zM63.69 177.85a83.51 83.51 0 0053.09 47.57A113.3 113.3 0 01100 177.85z" fill="#b7c2cb"/></g></svg>