<svg id="Capa_1" data-name="Capa 1" xmlns="http://www.w3.org/2000/svg" viewBox="0 0 277 276"><defs><style>.cls-1{fill:#d9d9d9;}.cls-2{fill:#196480;}</style></defs><g id="Grupo_579" data-name="Grupo 579"><rect id="Rectángulo_1675" data-name="Rectángulo 1675" class="cls-1" x="6" y="5" width="267" height="267" rx="19.4"/></g><path id="Trazado_253" data-name="Trazado 253" class="cls-2" d="M117.45,193.79H124V146.33h-6.57a6.57,6.57,0,0,1-6.57-6.57V124.05a6.57,6.57,0,0,1,6.57-6.57h36.82a6.58,6.58,0,0,1,6.58,6.57v69.78h6.57A6.57,6.57,0,0,1,174,200.4v15.71a6.58,6.58,0,0,1-6.57,6.58h-50a6.58,6.58,0,0,1-6.57-6.58V200.38a6.57,6.57,0,0,1,6.56-6.59Zm25-139.48A23.68,23.68,0,0,0,118.76,78h0a23.68,23.68,0,0,0,23.68,23.67h0A23.67,23.67,0,0,0,166.11,78h0a23.68,23.68,0,0,0-23.67-23.68Z"/></svg>