<svg data-name="Capa 1" xmlns="http://www.w3.org/2000/svg" viewBox="0 0 283.46 283.46"><g data-name="Grupo 551"><rect data-name="Rectángulo 1675" x="11" y="10.76" width="265.07" height="265.07" rx="19.26" fill="#4b565f"/><path data-name="Trazado 521" d="M113 162.55a29.19 29.19 0 00-28 20.85 4.42 4.42 0 01-4.21 2.89c-3.21 0-13.11-8-15.93-9.91 0 23.75 10.91 44.62 36.91 44.62 21.88 0 36.91-12.62 36.91-34.67a23.2 23.2 0 00-.27-2.63L113 162.55zm83.88-89.2a17.57 17.57 0 00-11.6 4.74c-58.95 52.65-65.08 53.9-65.08 69.4a26.57 26.57 0 002.52 11.16L141.16 174a26.6 26.6 0 006.46.88c17.92 0 28.29-13.11 60.9-74a29.75 29.75 0 004-13.27 15 15 0 00-15.61-14.32z" fill="#b7c2cb"/></g></svg>