<svg data-name="Capa 1" xmlns="http://www.w3.org/2000/svg" viewBox="0 0 283.46 283.46"><g data-name="Grupo 604"><rect data-name="Rectángulo 1702" x="8.98" y="8.48" width="264.8" height="264.8" rx="19.24" fill="#4b565f"/><path data-name="Trazado 524" d="M227.78 95.11a3.92 3.92 0 00-6.57-1.8L197 117.58l-22.15-3.69-3.69-22.15 24.27-24.26a3.93 3.93 0 00-1.86-6.59 46.76 46.76 0 00-55.67 60.41l-69.67 69.63a20.88 20.88 0 0028.39 30.62c.39-.36.76-.73 1.12-1.12l69.58-69.54a46.82 46.82 0 0060.46-55.8zM83 213.52a7.83 7.83 0 117.83-7.83 7.84 7.84 0 01-7.83 7.83z" fill="#b7c2cb"/></g></svg>