<svg version="1.1" id="Capa_1" xmlns="http://www.w3.org/2000/svg" x="0" y="0" viewBox="0 0 283.46 283.46" xml:space="preserve"><style>.st1{fill:#b9c2ca}</style><switch><g><path d="M266.1 277.77H16.37c-6.6 0-12-5.4-12-12V16.03c0-6.6 5.4-12 12-12H266.1c6.6 0 12 5.4 12 12v249.73c0 6.61-5.4 12.01-12 12.01z" fill="#4d565e"/><path class="st1" d="M214.16 149.34H67.36c-1.47 0-2.67-1.2-2.67-2.67v-19.08c0-1.47 1.2-2.67 2.67-2.67h146.8c1.47 0 2.67 1.2 2.67 2.67v19.08c0 1.46-1.2 2.67-2.67 2.67z"/><path class="st1" d="M129.38 210.76V63.81c0-1.43 1.17-2.59 2.59-2.59h17.84c1.43 0 2.59 1.17 2.59 2.59v146.95c0 1.43-1.17 2.59-2.59 2.59h-17.84c-1.42.01-2.59-1.16-2.59-2.59z"/></g></switch></svg>