<svg data-name="Capa 1" xmlns="http://www.w3.org/2000/svg" viewBox="0 0 235.3 224.29"><path data-name="Trazado 504" d="M116.21 7.2a105.9 105.9 0 10105.9 105.9A105.9 105.9 0 00116.21 7.2zm35.14 152.7l-4.83 4.82a10.33 10.33 0 00-2.64 4.57 74.91 74.91 0 01-2 7.21l-7.41 20a85.25 85.25 0 01-18.22 2v-11.65a31.94 31.94 0 00-9.71-21.85 13.68 13.68 0 01-4-9.67v-13.7a13.63 13.63 0 00-7-11.94c-6.13-3.4-14.83-8.15-20.84-11.15a61.75 61.75 0 01-13.52-9.29l-.35-.31a49.29 49.29 0 01-7.71-8.85c-4-5.88-10.52-15.55-14.77-21.84a85.84 85.84 0 0144.07-43.5l10.25 5.12a6.84 6.84 0 009.89-6.11v-4.83a86.38 86.38 0 0110.41-1.06L125 40a6.81 6.81 0 010 9.65l-2 2-4.39 4.35a3.42 3.42 0 000 4.83l2 2a3.42 3.42 0 010 4.83l-3.41 3.42a3.44 3.44 0 01-2.42 1h-3.84a3.44 3.44 0 00-2.39 1l-4.23 4.12a3.41 3.41 0 00-.68 4l6.65 13.33a3.41 3.41 0 01-1.54 4.58 3.26 3.26 0 01-1.51.36h-2.4a3.42 3.42 0 01-2.24-.84l-4-3.44a6.85 6.85 0 00-6.6-1.35l-13.31 4.44a5.1 5.1 0 00-.66 9.4l4.74 2.32a28.78 28.78 0 0012.94 3.06c4.49 0 9.65 11.65 13.66 13.66h28.51a13.66 13.66 0 019.67 4l5.84 5.84a13 13 0 013.82 9.22 19.93 19.93 0 01-5.86 14.12zm37.06-39a10.22 10.22 0 01-6-4.24l-7.68-11.51a10.25 10.25 0 010-11.38l8.37-12.54a10.23 10.23 0 013.9-3.5l5.55-2.73a82.86 82.86 0 018.33 49z" fill="#4b565f"/></svg>