<svg data-name="Capa 1" xmlns="http://www.w3.org/2000/svg" viewBox="0 0 283.46 283.46"><g data-name="Grupo 549"><path data-name="Trazado 561" d="M29.85 10h223.76a19 19 0 0119 19v223.77a19 19 0 01-19 19H29.85a19 19 0 01-19-19V29a19 19 0 0119-19z" fill="#4b565f"/><path data-name="Trazado 522" d="M199.66 179.76a22.22 22.22 0 00-5.32.67L180.27 157a22.07 22.07 0 00.9-28.57l14.59-24.27a21.76 21.76 0 004 .38 22.24 22.24 0 10-20.83-29.95h-78.2A22.23 22.23 0 1072 103.12v78.11a22.22 22.22 0 1028.64 28.63h78.26a22.23 22.23 0 1020.73-30.1zm-111.94 1.46v-78.11a22.3 22.3 0 0012.86-12.76H179a22.27 22.27 0 003.29 5.76l-14.59 24.27a21.76 21.76 0 00-4-.38 22.24 22.24 0 105.3 43.8l14.06 23.39a22.37 22.37 0 00-4.22 6.94h-78.23a22.28 22.28 0 00-12.89-12.9zm76-29.84a9.13 9.13 0 119.13-9.13 9.15 9.15 0 01-9.13 9.13zm35.93-78.17a9.14 9.14 0 11-9.13 9.13 9.15 9.15 0 019.13-9.13zm-119.8 0a9.14 9.14 0 11-9.14 9.13 9.14 9.14 0 019.14-9.13zm0 137.93A9.14 9.14 0 1189 202a9.14 9.14 0 01-9.13 9.13zm119.8 0a9.14 9.14 0 119.15-9.14 9.15 9.15 0 01-9.14 9.13z" fill="#b7c2cb"/></g></svg>