<svg id="Capa_1" data-name="Capa 1" xmlns="http://www.w3.org/2000/svg" viewBox="0 0 281 278"><defs><style>.cls-1{fill:#d9d9d9;}.cls-2{fill:#196480;}</style></defs><path id="Trazado_602" data-name="Trazado 602" class="cls-1" d="M22.54,1.78H258.31a20,20,0,0,1,20,20V257.59a20,20,0,0,1-20,20.05H22.54a20.05,20.05,0,0,1-20-20.05V21.82A20,20,0,0,1,22.54,1.78Z"/><path class="cls-2" d="M222.6,144.22c0-2.35-.14-4.7-.27-7.05-.14-2.63-.34-5.26-.53-7.89-.13-1.87-.31-3.74-.44-5.61,0-.47-.2-.59-.66-.53-.83.1-1.67.13-2.5.2l-2.72.21L135.74,122l-5.71-.62a.55.55,0,0,0-.69.49c0,.21-.09.58-.14.79-.76,3.48-1.35,7-2.25,10.45a58.11,58.11,0,0,1-4.63,11.68,78.63,78.63,0,0,1-5.93,9.68,90.11,90.11,0,0,1-8.59,10.31c-2.2,2.25-4.47,4.42-6.76,6.58-1.65,1.55-3.33,3.06-5.09,4.48-2.77,2.24-5.62,4.36-8.47,6.49q-1.82,1.37-3.74,2.58c-2.61,1.64-5.23,3.28-7.94,4.75-3.07,1.67-6.25,3.15-9.39,4.7a10.54,10.54,0,0,0-3.13,2.22,8.63,8.63,0,0,0,1.9,13.1,69.2,69.2,0,0,0,7.35,3.7c2.06.89,4.13,1.78,6.21,2.65.05,0,31.7-9.88,40.54-22.7,0,0-15.45,26.44-25.19,28.27q2.88.87,5.78,1.68c3.7,1,7.48,1.83,11.25,2.58,1.73.35,3.46.66,5.2,1,6-4.71,37.83-30.57,39.43-51.5,0,0,0,35.36-24.84,53.28l.44,0c3.24.27,6.49.5,9.74.56,4.08.08,8.17.07,12.24-.08,0,0,18-12.16,18.82-26,0,0,1.56,15.94-7.86,25.42l3.09-.21c2.11-.15,4.22-.5,6.33-.74,1.43-.17,2.86-.35,4.28-.58q2.82-.47,5.64-1,3-.57,6.07-1.22c1.85-.39,3.71-.81,5.54-1.27q3.84-1,7.66-2.06c1.57-.44,3.12-1,4.69-1.44a18.59,18.59,0,0,0,5.47-2.41,9.55,9.55,0,0,0,3.92-5.95c.58-2.57,1.16-5.15,1.59-7.75.87-5.37,1.76-10.75,2.4-16.15.61-5.07,1-10.17,1.3-15.27q.42-6.57.5-13.16C222.82,154.26,222.69,149.24,222.6,144.22Z"/><path class="cls-2" d="M131.14,116.63l5.33,0c5.82,0,11.64.07,17.46.12s11.6.13,17.39.18c5.27,0,10.54.07,15.8.12l11.22.11,14.45.11,7.47,0c0-.36,0-.66,0-1A27.22,27.22,0,0,0,216,102.51a24.71,24.71,0,0,0-5.73-6.42,26.75,26.75,0,0,0-7.52-4.2,29.34,29.34,0,0,0-9.86-1.7l-2.34,0c-.09-1.19-.17-2.39-.26-3.58-.17-2.13-.36-4.26-.52-6.4-.25-3.36-.46-6.73-.71-10.09s-.51-6.77-.77-10.16c-.31-4.06-.62-7.38-.92-11.44-.16-2.17-.29-4.34-.47-6.51-.09-1-.29-1.9-.43-2.85l-.15,0a3.53,3.53,0,0,0-1.68-1.71,11.6,11.6,0,0,0-7.08-1.26,15.32,15.32,0,0,0-4.69.92A7,7,0,0,0,170,39.24a6.33,6.33,0,0,0-1.14,3.35c-.36,4.19-.67,8.38-1,12.57-.29,3.6-.61,7.21-.92,10.81-.24,2.86-.46,5.73-.7,8.59q-.39,4.66-.77,9.33-.26,3-.49,6l-7.83,0a27.89,27.89,0,0,0-7.44,1,22.5,22.5,0,0,0-5.32,2.18,29.3,29.3,0,0,0-5.48,4.07,28.2,28.2,0,0,0-6.07,8.34A25.16,25.16,0,0,0,130.47,116C130.46,116.57,130.73,116.63,131.14,116.63Z"/><path class="cls-2" d="M69.25,164.09a12.93,12.93,0,1,0-5.12,17A12.9,12.9,0,0,0,69.25,164.09Z"/><path class="cls-2" d="M90.76,169.83a8.67,8.67,0,0,0,4.41-11.34A8.58,8.58,0,0,0,83.92,154a8.6,8.6,0,1,0,6.84,15.79Z"/></svg>