<svg id="Capa_1" data-name="Capa 1" xmlns="http://www.w3.org/2000/svg" viewBox="0 0 293.09 292.5"><defs><style>.cls-1,.cls-4{fill:#4b5660;}.cls-2,.cls-3{fill:#b7c2cb;}.cls-3{stroke:#4c5660;stroke-width:5.11px;}.cls-3,.cls-4,.cls-5{stroke-miterlimit:10;}.cls-4{stroke:#4b5660;stroke-width:2.04px;}.cls-5{fill:#4d5660;stroke:#b7c2cb;stroke-width:5px;}</style></defs><title>icon</title><path id="Trazado_602" data-name="Trazado 602" class="cls-1" d="M29.12,11.48H264.89a20,20,0,0,1,20,20V267.29a20,20,0,0,1-20,20H29.12a20.05,20.05,0,0,1-20-20V31.52A20,20,0,0,1,29.12,11.48Z"/><path class="cls-2" d="M142.46,49.31c-51.15,0-93.41,41.7-93.41,93.41s42.26,92.86,93.41,92.86,93.42-41.7,93.42-93.41S193.62,49.31,142.46,49.31ZM110.77,66.54a95,95,0,0,0-16.68,31.7H73.51A83.06,83.06,0,0,1,110.77,66.54Zm-50,75.63c-.55-11.68,2.23-22.25,6.68-32.81H91.31A152.13,152.13,0,0,0,88,142.17,152.1,152.1,0,0,0,91.31,175H67.4A80.46,80.46,0,0,1,60.72,142.17ZM73,186.65H93.53q5.84,19.18,16.68,31.69A89.22,89.22,0,0,1,73,186.65Zm63.94,36.7c-12.79-3.34-23.91-17.24-31.14-36.7H136.9Zm0-47.82H102.43a160.07,160.07,0,0,1-3.89-32.81,151.22,151.22,0,0,1,3.89-32.81H136.9Zm0-77.29H105.76c7.23-19.46,18.35-33.36,31.14-36.7Zm75.07,0H191.39q-5.83-19.18-16.68-31.7A89.35,89.35,0,0,1,212,98.24ZM148,61.54c12.79,3.34,23.91,17.24,31.14,36.7H148Zm0,47.82H182.5a161.43,161.43,0,0,1,3.89,33.36,151.84,151.84,0,0,1-3.89,32.81H148Zm0,114v-36.7h31.14C171.93,206.11,160.81,220,148,223.35Zm26.14-5a94.88,94.88,0,0,0,16.68-31.69h20.57A83,83,0,0,1,174.16,218.34Zm19.46-42.81A152.78,152.78,0,0,0,197,142.72a152.78,152.78,0,0,0-3.33-32.81h23.91a80.47,80.47,0,0,1,6.67,32.81c.56,11.68-2.22,22.8-6.67,32.81Z"/><path id="Trazado_602-2" data-name="Trazado 602" class="cls-3" d="M170.26,175.05h65.37a5.55,5.55,0,0,1,5.55,5.56V246a5.55,5.55,0,0,1-5.55,5.56H170.26a5.56,5.56,0,0,1-5.55-5.56V180.61A5.56,5.56,0,0,1,170.26,175.05Z"/><path class="cls-4" d="M225.42,213.85a5.07,5.07,0,0,0-5.08-5.08H185.55a5.08,5.08,0,1,0,0,10.16h34.79A5.08,5.08,0,0,0,225.42,213.85ZM208,231.25V196.46a5.08,5.08,0,0,0-10.16,0v34.79a5.08,5.08,0,0,0,10.16,0Z"/><polygon class="cls-2" points="99.32 173.53 91.08 170.25 142.7 98.62 195.78 128.65 191.78 135.08 144.87 108.89 99.32 173.53"/><circle class="cls-5" cx="96.69" cy="171.39" r="12.36"/><circle class="cls-5" cx="144.29" cy="103.26" r="12.36"/><circle class="cls-5" cx="192.78" cy="131.37" r="12.36"/></svg>