<svg data-name="Capa 1" xmlns="http://www.w3.org/2000/svg" viewBox="0 0 283.46 261.84"><path data-name="Trazado 256" d="M262.07 10.67a7.18 7.18 0 00-13.27-.59 79.9 79.9 0 01-70.27 42.73H141a91.93 91.93 0 00-90 93.71 98.42 98.42 0 00.7 10A218.18 218.18 0 01186 115.28a7.81 7.81 0 010 15.61c-117.86 0-167.84 75.21-178.9 103.47a15.84 15.84 0 008.2 20.3 14.81 14.81 0 0019.41-7.89c.08-.18.15-.37.22-.55A128.13 128.13 0 0168.66 202a88.48 88.48 0 0082 37.68c73.6-5.57 125.41-74.28 125.41-158.43a183.79 183.79 0 00-14-70.58z" fill="#6c8090"/></svg>