<svg xmlns="http://www.w3.org/2000/svg" viewBox="0 0 449.92 422.41"><style></style><switch><g><g id="Capa_3"><g id="Grupo_621_1_" transform="translate(-1864.716 -86)"><path id="Trazado_602_1_" d="M1932.19 111.19h319.73c15.01 0 27.19 12.17 27.19 27.19v319.73c0 15.01-12.17 27.19-27.19 27.19h-319.73c-15.01 0-27.19-12.17-27.19-27.19V138.38c0-15.02 12.17-27.19 27.19-27.19z" fill="#4e565e"/></g><path id="Trazado_253_2_" d="M197.24 291.22h9.42v-68h-9.42c-5.2 0-9.42-4.22-9.42-9.42v-22.51c0-5.2 4.22-9.42 9.42-9.42H250c5.2 0 9.42 4.22 9.42 9.42v99.99h9.42c5.2 0 9.42 4.22 9.42 9.42v22.51c0 5.2-4.22 9.42-9.42 9.42h-71.61c-5.2 0-9.42-4.22-9.42-9.42v-22.54c-.01-5.2 4.19-9.43 9.4-9.44 0-.01.01-.01.03-.01zm35.8-199.86c-18.74 0-33.92 15.19-33.92 33.92 0 18.74 15.19 33.92 33.92 33.92 18.74 0 33.92-15.19 33.92-33.92.01-18.74-15.18-33.92-33.92-33.92z" fill="#bac2ca"/></g></g></switch></svg>