<?xml version="1.0" encoding="utf-8"?>
<svg viewBox="57.953 58.162 481 90.4" preserveAspectRatio="xMinYMax" xmlns="http://www.w3.org/2000/svg">
  <defs>
    <linearGradient id="Degradado_sin_nombre_7" x1="10.57" y1="84.06" x2="109.28" y2="27.06" gradientUnits="userSpaceOnUse">
      <stop offset="0.26" stop-color="#4687c7"/>
      <stop offset="0.33" stop-color="#4e7fbb"/>
      <stop offset="0.45" stop-color="#656a9c"/>
      <stop offset="0.62" stop-color="#89486a"/>
      <stop offset="0.81" stop-color="#ba1826"/>
      <stop offset="0.82" stop-color="#bd1622"/>
    </linearGradient>
  </defs>
  <g id="Capa_2" data-name="Capa 2" transform="matrix(0.93865, 0, 0, 0.93865, 58.301437, 56.103706)" style="">
    <g transform="matrix(1.226563, 0, 0, 1.226563, -80.125015, -4.59629)" style="">
      <path class="cls-1" d="M 359.434 33.877 L 358.434 33.877 L 358.434 20.457 L 361.784 20.457 C 365.134 20.457 367.194 21.657 367.194 24.637 C 367.194 27.617 364.784 29.057 361.684 29.057 C 360.931 29.046 360.18 28.989 359.434 28.887 Z M 359.434 27.967 C 360.18 28.07 360.931 28.126 361.684 28.137 C 364.244 28.137 366.164 27.047 366.164 24.607 C 366.164 22.167 364.514 21.377 361.704 21.377 L 359.434 21.377 Z" style="fill: rgb(255, 255, 255);"/>
      <path class="cls-1" d="M 372.784 33.877 L 371.784 33.877 L 371.784 20.457 L 375.014 20.457 C 378.164 20.457 380.114 21.607 380.114 24.457 C 380.2 26.155 379.133 27.698 377.514 28.217 L 380.994 33.877 L 379.784 33.957 L 376.464 28.507 C 375.939 28.597 375.407 28.64 374.874 28.637 C 374.114 28.637 373.324 28.547 372.694 28.487 Z M 372.784 27.507 C 373.501 27.602 374.222 27.658 374.944 27.677 C 377.374 27.677 379.134 26.677 379.134 24.377 C 379.134 22.077 377.604 21.377 374.944 21.377 L 372.784 21.377 Z" style="fill: rgb(255, 255, 255);"/>
      <path class="cls-1" d="M 385.634 20.457 L 393.784 20.457 L 393.714 21.377 L 386.624 21.377 L 386.624 26.797 L 392.784 26.797 L 392.704 27.717 L 386.604 27.717 L 386.604 32.957 L 393.784 32.957 L 393.714 33.877 L 385.714 33.877 Z" style="fill: rgb(255, 255, 255);"/>
      <path class="cls-1" d="M 409.044 27.107 C 409.044 31.907 406.414 34.107 402.724 34.107 C 401.316 34.105 399.912 33.957 398.534 33.667 L 398.534 20.457 L 403.024 20.457 C 406.674 20.457 409.044 22.347 409.044 27.107 Z M 399.534 21.377 L 399.534 32.857 C 400.607 33.046 401.695 33.143 402.784 33.147 C 405.784 33.147 408.054 31.277 408.054 27.147 C 408.054 23.017 406.054 21.417 403.004 21.417 Z" style="fill: rgb(255, 255, 255);"/>
      <path class="cls-1" d="M 415.204 20.457 L 415.204 33.877 L 414.204 33.877 L 414.204 20.457 Z" style="fill: rgb(255, 255, 255);"/>
      <path class="cls-1" d="M 421.354 27.167 C 421.354 31.577 423.634 33.167 426.264 33.167 C 427.435 33.148 428.593 32.907 429.674 32.457 L 429.884 33.377 C 428.732 33.836 427.504 34.077 426.264 34.087 C 423.094 34.087 420.364 32.267 420.364 27.187 C 420.364 22.107 423.094 20.287 426.264 20.287 C 427.504 20.297 428.732 20.538 429.884 20.997 L 429.674 21.907 C 428.592 21.46 427.435 21.222 426.264 21.207 C 423.634 21.187 421.354 22.747 421.354 27.167 Z" style="fill: rgb(255, 255, 255);"/>
      <path class="cls-1" d="M 433.324 21.377 L 433.394 20.457 L 443.604 20.457 L 443.524 21.377 L 438.954 21.377 L 438.954 33.877 L 437.954 33.877 L 437.954 21.377 Z" style="fill: rgb(255, 255, 255);"/>
      <path class="cls-1" d="M 448.614 20.457 L 448.614 33.877 L 447.614 33.877 L 447.614 20.457 Z" style="fill: rgb(255, 255, 255);"/>
      <path class="cls-1" d="M 454.954 33.877 L 453.954 33.877 L 453.954 20.497 L 454.954 20.417 L 462.604 32.137 L 462.604 20.457 L 463.604 20.457 L 463.604 33.837 L 462.604 33.917 L 454.954 22.197 Z" style="fill: rgb(255, 255, 255);"/>
      <path class="cls-1" d="M 469.784 27.167 C 469.784 31.427 471.844 33.167 474.864 33.167 C 475.941 33.162 477.008 32.962 478.014 32.577 L 478.014 28.407 L 474.214 28.407 L 474.294 27.487 L 479.014 27.487 L 479.014 33.247 C 477.67 33.791 476.234 34.076 474.784 34.087 C 471.324 34.087 468.784 32.177 468.784 27.187 C 468.784 22.197 471.514 20.287 474.884 20.287 C 476.121 20.298 477.345 20.539 478.494 20.997 L 478.284 21.907 C 477.204 21.466 476.051 21.229 474.884 21.207 C 472.104 21.187 469.784 22.747 469.784 27.167 Z" style="fill: rgb(255, 255, 255);"/>
    </g>
    <g transform="matrix(1.226563, 0, 0, 1.226563, -80.125015, -3.94989)" style="">
      <path class="cls-1" d="M 359.146 48.04 C 359.146 52.45 361.426 54.04 364.066 54.04 C 365.234 54.02 366.388 53.779 367.466 53.33 L 367.676 54.25 C 366.527 54.708 365.303 54.948 364.066 54.96 C 360.886 54.96 358.156 53.14 358.156 48.06 C 358.156 42.98 360.886 41.16 364.066 41.16 C 365.303 41.171 366.527 41.412 367.676 41.87 L 367.466 42.78 C 366.387 42.333 365.233 42.096 364.066 42.08 C 361.396 42.06 359.146 43.62 359.146 48.04 Z" style="fill: rgb(255, 255, 255);"/>
      <path class="cls-1" d="M 378.206 41.14 C 381.706 41.14 384.146 42.95 384.146 48.04 C 384.146 53.13 381.706 54.94 378.206 54.94 C 374.706 54.94 372.266 53.1 372.266 48.04 C 372.266 42.98 374.706 41.14 378.206 41.14 Z M 378.206 54.02 C 381.116 54.02 383.156 52.43 383.156 48.02 C 383.156 43.61 381.156 42.02 378.206 42.02 C 375.256 42.02 373.256 43.58 373.256 48.02 C 373.256 52.46 375.306 54.02 378.206 54.02 Z" style="fill: rgb(255, 255, 255);"/>
      <path class="cls-1" d="M 390.306 54.75 L 389.306 54.75 L 389.306 41.37 L 390.306 41.29 L 397.946 53.01 L 397.946 41.33 L 398.946 41.33 L 398.946 54.71 L 397.946 54.79 L 390.306 43.07 Z" style="fill: rgb(255, 255, 255);"/>
      <path class="cls-1" d="M 402.956 42.25 L 403.036 41.33 L 413.236 41.33 L 413.166 42.25 L 408.596 42.25 L 408.596 54.75 L 407.596 54.75 L 407.596 42.25 Z" style="fill: rgb(255, 255, 255);"/>
      <path class="cls-1" d="M 416.716 51.13 L 415.416 54.75 L 414.416 54.75 L 419.286 41.37 L 420.586 41.29 L 425.506 54.75 L 424.396 54.75 L 423.096 51.13 Z M 419.906 42.25 L 417.046 50.25 L 422.776 50.25 Z" style="fill: rgb(255, 255, 255);"/>
      <path class="cls-1" d="M 430.666 48.04 C 430.666 52.3 432.736 54.04 435.756 54.04 C 436.833 54.035 437.9 53.835 438.906 53.45 L 438.906 49.28 L 435.106 49.28 L 435.186 48.36 L 439.906 48.36 L 439.906 54.12 C 438.562 54.664 437.126 54.949 435.676 54.96 C 432.216 54.96 429.676 53.05 429.676 48.06 C 429.676 43.07 432.406 41.16 435.776 41.16 C 437.014 41.157 438.241 41.384 439.396 41.83 L 439.186 42.74 C 438.105 42.299 436.953 42.062 435.786 42.04 C 433.026 42.06 430.666 43.62 430.666 48.04 Z" style="fill: rgb(255, 255, 255);"/>
      <path class="cls-1" d="M 446.246 41.33 L 446.246 54.75 L 445.246 54.75 L 445.246 41.33 Z" style="fill: rgb(255, 255, 255);"/>
      <path class="cls-1" d="M 457.396 41.14 C 460.886 41.14 463.336 42.95 463.336 48.04 C 463.336 53.13 460.886 54.94 457.396 54.94 C 453.906 54.94 451.396 53.1 451.396 48.04 C 451.396 42.98 453.856 41.14 457.396 41.14 Z M 457.396 54.02 C 460.296 54.02 462.396 52.43 462.396 48.02 C 462.396 43.61 460.346 42.02 457.396 42.02 C 454.446 42.02 452.396 43.58 452.396 48.02 C 452.396 52.46 454.446 54.02 457.396 54.02 Z" style="fill: rgb(255, 255, 255);"/>
      <path class="cls-1" d="M 469.446 54.75 L 468.446 54.75 L 468.446 41.37 L 469.446 41.29 L 477.096 53.01 L 477.096 41.33 L 478.096 41.33 L 478.096 54.71 L 477.096 54.79 L 469.446 43.07 Z" style="fill: rgb(255, 255, 255);"/>
    </g>
    <g style="" transform="matrix(1.226563, 0, 0, 1.226563, -81.376099, -4.59629)">
      <path class="cls-1" d="M 360.176 76.667 L 359.176 76.667 L 359.176 63.247 L 362.406 63.247 C 365.556 63.247 367.506 64.397 367.506 67.247 C 367.591 68.945 366.524 70.488 364.906 71.007 L 368.386 76.667 L 367.256 76.747 L 363.936 71.297 C 363.411 71.387 362.879 71.431 362.346 71.427 C 361.586 71.427 360.796 71.337 360.166 71.277 Z M 360.176 70.297 C 360.892 70.391 361.613 70.448 362.336 70.467 C 364.766 70.467 366.526 69.467 366.526 67.167 C 366.526 64.867 364.996 64.167 362.336 64.167 L 360.176 64.167 Z" style="fill: rgb(255, 255, 255);"/>
      <path class="cls-1" d="M 374.076 63.247 L 374.076 76.667 L 373.076 76.667 L 373.076 63.247 Z" style="fill: rgb(255, 255, 255);"/>
      <path class="cls-1" d="M 379.736 75.157 C 380.823 75.653 382.001 75.918 383.196 75.937 C 384.986 75.937 386.536 75.207 386.536 73.247 C 386.536 70.107 379.276 70.447 379.276 66.417 C 379.276 64.067 381.206 63.057 383.476 63.057 C 384.72 63.064 385.949 63.33 387.086 63.837 L 386.876 64.757 C 385.818 64.234 384.655 63.961 383.476 63.957 C 381.756 63.957 380.266 64.637 380.266 66.477 C 380.266 69.607 387.526 69.247 387.526 73.297 C 387.526 75.807 385.526 76.857 383.156 76.857 C 381.905 76.842 380.67 76.573 379.526 76.067 Z" style="fill: rgb(255, 255, 255);"/>
      <path class="cls-1" d="M 393.456 70.257 L 393.456 76.667 L 392.456 76.667 L 392.456 63.247 L 393.456 63.247 L 393.456 69.647 L 399.896 63.207 L 401.136 63.287 L 394.486 69.897 L 401.216 76.627 L 399.876 76.707 Z" style="fill: rgb(255, 255, 255);"/>
    </g>
    <path class="cls-4" d="M68.42,14.86l.07-10.25H52.2L52,37.55C53.33,27.08,59.6,19.81,68.42,14.86Z" style="fill: rgb(70, 135, 199);"/>
    <path class="cls-5" d="M116.88,49V94.77H100.57V49A16.29,16.29,0,0,0,84.28,32.66,15.9,15.9,0,0,0,68.26,49l0,4v1.39l0,7.76a32.36,32.36,0,0,1-1.73,10.54c-.08.26-.17.51-.26.76-.19.5-.38,1-.59,1.48l-.21.46c-.15.32-.29.65-.45,1s-.21.42-.32.63-.25.52-.4.77-.24.42-.35.62l-.44.76-.32.49c-.18.29-.36.58-.55.85-.07.1-.15.2-.21.3-.24.34-.48.68-.73,1l0,0c-.38.49-.76,1-1.17,1.44-.6.71-1.23,1.39-1.89,2A32.58,32.58,0,0,1,3,62.18V16.34l15.68.05V62.23A17.06,17.06,0,0,0,19,64.71,16.27,16.27,0,0,0,35.11,78.47l.23,0,.23,0a16.29,16.29,0,0,0,16.3-16.29L52,44.86A32.59,32.59,0,0,1,116.88,49Z" style="fill: url(#Degradado_sin_nombre_7);"/>
    <path class="cls-1" d="M125.2,41.21V16.28h11.44V41c0,4,2.56,6.54,6.3,6.54S149.25,45,149.25,41V16.28h11.44V41.21c0,10-7.38,16.75-17.75,16.75S125.2,51.21,125.2,41.21Z" style="fill: rgb(255, 255, 255);"/>
    <path class="cls-1" d="M188.53,44.5h-4.06V56.94h-11.2V16.28h17.62c8.76,0,15.12,5.89,15.12,14.39a13,13,0,0,1-6.46,11.48l8.08,14.79H195.12Zm-4.06-9.44h5.11c3.13,0,4.94-1.88,4.94-4.43s-1.81-4.4-4.94-4.4h-5.11Z" style="fill: rgb(255, 255, 255);"/>
    <path class="cls-1" d="M243.35,35.47a10.68,10.68,0,0,1,6.23,9.89c0,6.59-5.68,11.58-13.19,11.58H217.65V16.28H236c7.21,0,12.47,4.4,12.47,10.4a10.36,10.36,0,0,1-5.14,8.79ZM238.5,44c0-2.16-1.58-3.68-4-3.68h-6.08v7.39h6.08C236.92,47.74,238.5,46.22,238.5,44Zm-.64-15.49A3.44,3.44,0,0,0,234.07,25h-5.66v7.08h5.66a3.44,3.44,0,0,0,3.79-3.54Z" style="fill: rgb(255, 255, 255);"/>
    <path class="cls-1" d="M284.15,50.33H269.74l-2.25,6.61h-12l16-40.66H282.4l16.32,40.66H286.39ZM276.92,29l-4.45,12.6h8.95Z" style="fill: rgb(255, 255, 255);"/>
    <path class="cls-1" d="M344,16.28V56.94h-9.26L318.62,34.87V56.94H307.76V16.28h9.8l15.62,21.33V16.28Z" style="fill: rgb(255, 255, 255);"/>
    <path class="cls-1" d="M147.13,76.71V64.38h3.38V94.77h-3.38V79.86H131.57V94.77h-3.39V64.38h3.39V76.71Z" style="fill: rgb(255, 255, 255);"/>
    <path class="cls-1" d="M190,79.62a15.84,15.84,0,1,1-15.84-15.76A15.76,15.76,0,0,1,190,79.62Zm-28.29,0A12.46,12.46,0,1,0,174.18,67,12.56,12.56,0,0,0,161.73,79.58Z" style="fill: rgb(255, 255, 255);"/>
    <path class="cls-1" d="M205.75,94.77h-3.38V67.52H195V64.38h18.14v3.14h-7.42Z" style="fill: rgb(255, 255, 255);"/>
    <path class="cls-1" d="M233.5,70.31c-1.21-2.1-2.66-3.31-5.24-3.31a4.83,4.83,0,0,0-5,4.72c0,2.62,2.7,3.83,4.75,4.75l2,.89c3.95,1.73,7.3,3.71,7.3,8.55a9.6,9.6,0,0,1-19,1.53l3.31-.93a6.26,6.26,0,0,0,6.08,5.64,6.11,6.11,0,0,0,6.25-5.92c0-3.55-2.78-4.76-5.6-6l-1.86-.8c-3.54-1.62-6.61-3.43-6.61-7.78,0-4.72,4-7.74,8.51-7.74a8.72,8.72,0,0,1,7.86,4.71Z" style="fill: rgb(255, 255, 255);"/>
    <path class="cls-1" d="M248.7,94.77h-3.38V64.38h5c2.62,0,5.32.08,7.53,1.61a8.38,8.38,0,0,1,3.43,6.94,8.57,8.57,0,0,1-2.9,6.53c-2.06,1.69-4.68,2-7.22,2H248.7Zm0-16.44H251c3.75,0,6.93-1.13,6.93-5.48,0-5-4-5.33-7.94-5.33H248.7Z" style="fill: rgb(255, 255, 255);"/>
    <path class="cls-1" d="M298.82,79.62A15.84,15.84,0,1,1,283,63.86,15.77,15.77,0,0,1,298.82,79.62Zm-28.3,0A12.46,12.46,0,1,0,283,67,12.56,12.56,0,0,0,270.52,79.58Z" style="fill: rgb(255, 255, 255);"/>
    <path class="cls-1" d="M314.55,94.77h-3.39V67.52h-7.33V64.38H322v3.14h-7.41Z" style="fill: rgb(255, 255, 255);"/>
    <path class="cls-1" d="M342.29,70.31c-1.21-2.1-2.66-3.31-5.24-3.31a4.83,4.83,0,0,0-5,4.72c0,2.62,2.7,3.83,4.76,4.75l2,.89c4,1.73,7.3,3.71,7.3,8.55a9.6,9.6,0,0,1-19,1.53l3.31-.93a6.26,6.26,0,0,0,6.09,5.64,6.11,6.11,0,0,0,6.24-5.92c0-3.55-2.78-4.76-5.6-6l-1.85-.8c-3.55-1.62-6.61-3.43-6.61-7.78,0-4.72,4-7.74,8.5-7.74A8.71,8.71,0,0,1,345,68.57Z" style="fill: rgb(255, 255, 255);"/>
  </g>
</svg>