<svg id="Capa_1" data-name="Capa 1" xmlns="http://www.w3.org/2000/svg" xmlns:xlink="http://www.w3.org/1999/xlink" viewBox="0 0 481 72.6"><defs><style>.cls-1{fill:#fff;}.cls-2{fill:url(#Degradado_sin_nombre_3);}.cls-3{fill:url(#Degradado_sin_nombre_7);}</style><linearGradient id="Degradado_sin_nombre_3" x1="15.79" y1="63.73" x2="43.24" y2="16.17" gradientUnits="userSpaceOnUse"><stop offset="0.26" stop-color="#4687c7"/><stop offset="0.35" stop-color="#4e7fbb"/><stop offset="0.51" stop-color="#656a9c"/><stop offset="0.73" stop-color="#89486a"/><stop offset="0.99" stop-color="#ba1826"/><stop offset="1" stop-color="#bd1622"/></linearGradient><linearGradient id="Degradado_sin_nombre_7" x1="30.9" y1="34.6" x2="91.33" y2="34.6" gradientUnits="userSpaceOnUse"><stop offset="0.26" stop-color="#4687c7"/><stop offset="0.33" stop-color="#4e7fbb"/><stop offset="0.45" stop-color="#656a9c"/><stop offset="0.62" stop-color="#89486a"/><stop offset="0.81" stop-color="#ba1826"/><stop offset="0.82" stop-color="#bd1622"/></linearGradient></defs><path class="cls-1" d="M330.56,30.65h-1.14V15.21h3.72c3.63,0,5.87,1.32,5.87,4.55a4.34,4.34,0,0,1-3,4.34l4,6.51-1.29.09-3.83-6.27a9.76,9.76,0,0,1-1.83.15c-.88,0-1.78-.11-2.51-.18Zm0-7.32c.6.06,1.65.19,2.49.19,2.79,0,4.82-1.18,4.82-3.8s-1.76-3.46-4.82-3.46h-2.49Z"/><path class="cls-1" d="M346.56,15.21V30.65h-1.15V15.21Z"/><path class="cls-1" d="M353,28.91a9.82,9.82,0,0,0,4,.91c2.07,0,3.85-.84,3.85-3.11,0-3.6-8.36-3.21-8.36-7.85,0-2.71,2.22-3.87,4.84-3.87a10.26,10.26,0,0,1,4.16.9l-.25,1.05a9,9,0,0,0-3.91-.92c-2,0-3.7.79-3.7,2.91,0,3.6,8.36,3.19,8.36,7.85,0,2.88-2.33,4.09-5,4.09a10.8,10.8,0,0,1-4.18-.9Z"/><path class="cls-1" d="M368.86,23.28v7.37h-1.14V15.21h1.14v7.37l7.42-7.42,1.43.09-7.66,7.61,7.75,7.75-1.54.09Z"/><path class="cls-1" d="M330.56,54.15h-1.14V38.71h3.81c3.85,0,6.22,1.38,6.22,4.81s-2.68,5.09-6.29,5.09a21.86,21.86,0,0,1-2.6-.2Zm0-6.8a21.69,21.69,0,0,0,2.6.2c2.95,0,5.15-1.25,5.15-4.07,0-2.66-1.89-3.72-5.13-3.72h-2.62Z"/><path class="cls-1" d="M345.88,54.15h-1.15V38.71h3.72c3.63,0,5.87,1.32,5.87,4.55a4.34,4.34,0,0,1-3,4.34l4,6.51-1.3.09-3.83-6.27a9.76,9.76,0,0,1-1.83.15c-.88,0-1.78-.11-2.5-.18Zm0-7.32c.59.06,1.65.19,2.48.19,2.8,0,4.82-1.18,4.82-3.8s-1.76-3.46-4.82-3.46h-2.48Z"/><path class="cls-1" d="M360.72,38.71h9.36l-.09,1h-8.12V46H369l-.09,1.06h-7v6h8.21l-.09,1h-9.27Z"/><path class="cls-1" d="M387.68,46.36c0,5.53-3,8-7.29,8a23.49,23.49,0,0,1-4.82-.5V38.71h5.18C385,38.71,387.68,40.89,387.68,46.36Zm-11-6.6V53a22.13,22.13,0,0,0,3.74.33c3.52,0,6.07-2.16,6.07-7s-2.29-6.6-5.81-6.6Z"/><path class="cls-1" d="M394.76,38.71V54.15h-1.15V38.71Z"/><path class="cls-1" d="M401.84,46.43c0,5.08,2.62,6.89,5.66,6.89a10.59,10.59,0,0,0,3.91-.82l.25,1.06a11.56,11.56,0,0,1-4.16.81c-3.66,0-6.8-2.09-6.8-7.94s3.14-7.94,6.8-7.94a11.56,11.56,0,0,1,4.16.81l-.25,1.06a10.59,10.59,0,0,0-3.91-.82C404.46,39.54,401.84,41.35,401.84,46.43Z"/><path class="cls-1" d="M415.61,39.76l.09-1h11.75l-.09,1H422.1V54.15H421V39.76Z"/><path class="cls-1" d="M433.21,38.71V54.15h-1.14V38.71Z"/><path class="cls-1" d="M446,38.49c4,0,6.84,2.09,6.84,7.94S450,54.37,446,54.37s-6.85-2.11-6.85-7.94S442,38.49,446,38.49Zm0,14.83c3.34,0,5.69-1.83,5.69-6.89s-2.35-6.89-5.69-6.89-5.7,1.81-5.7,6.89S442.65,53.32,446,53.32Z"/><path class="cls-1" d="M459.92,54.15h-1.14V38.75l1.14-.09,8.8,13.49V38.71h1.15v15.4l-1.15.09-8.8-13.49Z"/><path class="cls-1" d="M110.73,29a11.84,11.84,0,0,1-4.61-4.62,13.45,13.45,0,0,1-1.67-6.74,13.42,13.42,0,0,1,1.67-6.74,11.86,11.86,0,0,1,4.61-4.63,13.26,13.26,0,0,1,6.61-1.65,13.53,13.53,0,0,1,6,1.28,11.21,11.21,0,0,1,4.36,3.7l-4.92,4.73a6.19,6.19,0,0,0-5.06-2.92,5,5,0,0,0-3.93,1.69,6.64,6.64,0,0,0-1.49,4.54,6.61,6.61,0,0,0,1.49,4.53,5,5,0,0,0,3.93,1.69A6.19,6.19,0,0,0,122.79,21l4.92,4.74a11.38,11.38,0,0,1-4.36,3.7,13.67,13.67,0,0,1-6,1.28A13.16,13.16,0,0,1,110.73,29Z"/><path class="cls-1" d="M134.72,29a12,12,0,0,1-4.66-4.64,13.36,13.36,0,0,1-1.68-6.7A13.4,13.4,0,0,1,130.06,11a12,12,0,0,1,4.66-4.64,14.32,14.32,0,0,1,13.42,0A12,12,0,0,1,152.8,11a13.4,13.4,0,0,1,1.68,6.71,13.36,13.36,0,0,1-1.68,6.7A12,12,0,0,1,148.14,29a14.24,14.24,0,0,1-13.42,0Zm9.34-5.88A5.37,5.37,0,0,0,145.92,21a7.28,7.28,0,0,0,.7-3.29,7.22,7.22,0,0,0-.7-3.29,5.3,5.3,0,0,0-1.86-2.17,4.88,4.88,0,0,0-5.26,0,5.3,5.3,0,0,0-1.86,2.17,7.22,7.22,0,0,0-.7,3.29,7.28,7.28,0,0,0,.7,3.29,5.37,5.37,0,0,0,1.86,2.17,4.93,4.93,0,0,0,5.26,0Z"/><path class="cls-1" d="M180,5.22v24.9h-6.42L164.76,18.8V30.12h-7.6V5.22h6.41l8.79,11.31V5.22Z"/><path class="cls-1" d="M188.59,11.73h-6.77V5.22h21.35v6.51h-6.78V30.12h-7.8Z"/><path class="cls-1" d="M219.63,25.78h-8.8l-1.55,4.34h-7.93l10.11-24.9h7.67l10.11,24.9h-8.06Zm-2.15-6.05-2.25-6.26L213,19.73Z"/><path class="cls-1" d="M245.31,17h6.77V27.52a15.24,15.24,0,0,1-4.76,2.35,18.5,18.5,0,0,1-5.32.82A13.22,13.22,0,0,1,235.36,29a11.84,11.84,0,0,1-4.61-4.62,13.56,13.56,0,0,1-1.67-6.74,13.53,13.53,0,0,1,1.67-6.74,11.73,11.73,0,0,1,4.66-4.63,13.73,13.73,0,0,1,6.76-1.65,14.62,14.62,0,0,1,6.09,1.22,11.52,11.52,0,0,1,4.48,3.58l-5,4.73a6.45,6.45,0,0,0-5.19-2.74,5.26,5.26,0,0,0-4.09,1.67,6.52,6.52,0,0,0-1.53,4.56,6.57,6.57,0,0,0,1.51,4.51,5.07,5.07,0,0,0,4,1.71,7,7,0,0,0,2.85-.6Z"/><path class="cls-1" d="M255.25,5.22h7.8v24.9h-7.8Z"/><path class="cls-1" d="M272.08,29a12,12,0,0,1-4.66-4.64,13.26,13.26,0,0,1-1.69-6.7A13.3,13.3,0,0,1,267.42,11a12,12,0,0,1,4.66-4.64,14.3,14.3,0,0,1,13.41,0A12,12,0,0,1,290.15,11a13.3,13.3,0,0,1,1.69,6.71,13.26,13.26,0,0,1-1.69,6.7A12,12,0,0,1,285.49,29a14.22,14.22,0,0,1-13.41,0Zm9.33-5.88A5.39,5.39,0,0,0,283.28,21a7.41,7.41,0,0,0,.69-3.29,7.35,7.35,0,0,0-.69-3.29,5.32,5.32,0,0,0-1.87-2.17,4.86,4.86,0,0,0-5.25,0,5.32,5.32,0,0,0-1.87,2.17,7.35,7.35,0,0,0-.69,3.29,7.41,7.41,0,0,0,.69,3.29,5.39,5.39,0,0,0,1.87,2.17,4.91,4.91,0,0,0,5.25,0Z"/><path class="cls-1" d="M317.32,5.22v24.9h-6.41L302.12,18.8V30.12h-7.6V5.22h6.41l8.79,11.31V5.22Z"/><path class="cls-1" d="M124,49.38V37.44h3.28V66.88H124V52.43H108.91V66.88h-3.28V37.44h3.28V49.38Z"/><path class="cls-1" d="M165.54,52.2A15.35,15.35,0,1,1,150.2,36.93,15.27,15.27,0,0,1,165.54,52.2Zm-27.41,0A12.07,12.07,0,1,0,150.2,40,12.18,12.18,0,0,0,138.13,52.16Z"/><path class="cls-1" d="M180.78,66.88H177.5V40.48h-7.11v-3H188v3h-7.19Z"/><path class="cls-1" d="M207.66,43.18c-1.18-2-2.58-3.21-5.08-3.21a4.67,4.67,0,0,0-4.88,4.57c0,2.54,2.62,3.71,4.61,4.61l1.95.86c3.83,1.68,7.07,3.59,7.07,8.28a9.29,9.29,0,0,1-18.43,1.48l3.2-.9A6.06,6.06,0,0,0,202,64.34a5.92,5.92,0,0,0,6.06-5.74c0-3.44-2.7-4.61-5.43-5.86l-1.8-.78c-3.43-1.56-6.4-3.32-6.4-7.53,0-4.57,3.86-7.5,8.24-7.5a8.44,8.44,0,0,1,7.61,4.57Z"/><path class="cls-1" d="M222.39,66.88h-3.28V37.44H224c2.54,0,5.15.07,7.3,1.56a8.1,8.1,0,0,1,3.32,6.71A8.27,8.27,0,0,1,231.76,52c-2,1.64-4.53,2-7,2h-2.38Zm0-15.93h2.18c3.63,0,6.72-1.1,6.72-5.31,0-4.81-3.87-5.16-7.69-5.16h-1.21Z"/><path class="cls-1" d="M270.93,52.2a15.35,15.35,0,1,1-15.34-15.27A15.27,15.27,0,0,1,270.93,52.2Zm-27.41,0A12.07,12.07,0,1,0,255.59,40,12.18,12.18,0,0,0,243.52,52.16Z"/><path class="cls-1" d="M286.17,66.88h-3.28V40.48h-7.11v-3h17.58v3h-7.19Z"/><path class="cls-1" d="M313.05,43.18c-1.18-2-2.58-3.21-5.08-3.21a4.67,4.67,0,0,0-4.88,4.57c0,2.54,2.62,3.71,4.61,4.61l1.95.86c3.83,1.68,7.07,3.59,7.07,8.28a9.29,9.29,0,0,1-18.43,1.48l3.2-.9a6.06,6.06,0,0,0,5.89,5.47,5.92,5.92,0,0,0,6.06-5.74c0-3.44-2.7-4.61-5.43-5.86l-1.8-.78c-3.43-1.56-6.4-3.32-6.4-7.53,0-4.57,3.86-7.5,8.24-7.5a8.44,8.44,0,0,1,7.61,4.57Z"/><path class="cls-2" d="M42.7,53a5.45,5.45,0,0,0-3.09.94,15.92,15.92,0,0,1-9,3A16.42,16.42,0,1,1,43.82,30.86l-.16-14.44a31.15,31.15,0,0,0-13.07-3.35,27.48,27.48,0,0,0,0,55,24.33,24.33,0,0,0,15-4.81c.36-.26.69-.54,1-.81A5.54,5.54,0,0,0,42.7,53Z"/><path class="cls-3" d="M69,13.31a22.14,22.14,0,0,0-10.89,2.84l-.16.1v-14H47v30c0,.16,0,.33-.07.5l0,10.55a14.51,14.51,0,0,1-4.27,8.33s.32-.33.13,0a7.58,7.58,0,0,1,2-.29,5.84,5.84,0,0,1,5.52,5.52,5.3,5.3,0,0,1-.6,2.67.67.67,0,0,1-.06.15C53,56.52,56.57,53,57.79,45.28c.14-.22.29-9.66.29-9.66A10.88,10.88,0,0,1,69,24.45,11.14,11.14,0,0,1,80.18,35.59V66.93H91.33V35.59A22.28,22.28,0,0,0,69,13.31Z"/></svg>